<svg width="400" height="400" xmlns="http://www.w3.org/2000/svg" clip-rule="evenodd" fill-rule="evenodd" image-rendering="optimizeQuality" text-rendering="geometricPrecision" shape-rendering="geometricPrecision">

 <g>
  <title>Layer 1</title>
  <g id="svg_4">
   <rect rx="95" transform="rotate(34.4811, 149.708, 210.829)" id="svg_3" height="192.12761" width="272.94155" y="114.76564" x="13.23694" fill="#e5e5e5"/>
   <path id="svg_2" d="m384.89811,84.34709c-4.001,-1.961 -5.723,1.776 -8.062,3.673c-0.801,0.612 -1.479,1.407 -2.154,2.141c-5.848,6.246 -12.681,10.349 -21.607,9.859c-13.048,-0.734 -24.192,3.368 -34.04,13.348c-2.093,-12.307 -9.048,-19.658 -19.635,-24.37c-5.54,-2.449 -11.141,-4.9 -15.02,-10.227c-2.708,-3.795 -3.447,-8.021 -4.801,-12.185c-0.861,-2.509 -1.725,-5.082 -4.618,-5.512c-3.139,-0.49 -4.372,2.142 -5.601,4.349c-4.925,9.002 -6.833,18.921 -6.647,28.962c0.432,22.597 9.972,40.597 28.932,53.397c2.154,1.47 2.707,2.939 2.032,5.082c-1.293,4.41 -2.832,8.695 -4.186,13.105c-0.862,2.817 -2.157,3.429 -5.172,2.205c-10.402,-4.346 -19.391,-10.778 -27.332,-18.553c-13.481,-13.044 -25.668,-27.434 -40.873,-38.702a177.614,177.614 0 0 0 -10.834,-7.409c-15.512,-15.063 2.032,-27.434 6.094,-28.902c4.247,-1.532 1.478,-6.797 -12.251,-6.736c-13.727,0.061 -26.285,4.653 -42.288,10.777c-2.34,0.92 -4.801,1.593 -7.326,2.142c-14.527,-2.756 -29.608,-3.368 -45.367,-1.593c-29.671,3.305 -53.368,17.329 -70.788,41.272c-20.928,28.785 -25.854,61.482 -19.821,95.59c6.34,35.943 24.683,65.704 52.876,88.974c29.239,24.123 62.911,35.943 101.32,33.677c23.329,-1.346 49.307,-4.468 78.607,-29.27c7.387,3.673 15.142,5.144 28.008,6.246c9.911,0.92 19.452,-0.49 26.839,-2.019c11.573,-2.449 10.773,-13.166 6.586,-15.124c-33.915,-15.797 -26.47,-9.368 -33.24,-14.573c17.235,-20.39 43.213,-41.577 53.369,-110.222c0.8,-5.448 0.121,-8.877 0,-13.287c-0.061,-2.692 0.553,-3.734 3.632,-4.041c8.494,-0.981 16.742,-3.305 24.314,-7.471c21.975,-12.002 30.84,-31.719 32.933,-55.355c0.307,-3.612 -0.061,-7.348 -3.879,-9.245l0,-0.003zm-191.498,212.723c-32.872,-25.838 -48.814,-34.352 -55.4,-33.984c-6.155,0.368 -5.048,7.41 -3.694,12.002c1.415,4.532 3.264,7.654 5.848,11.634c1.785,2.634 3.017,6.551 -1.784,9.493c-10.587,6.55 -28.993,-2.205 -29.856,-2.635c-21.421,-12.614 -39.334,-29.269 -51.954,-52.047c-12.187,-21.924 -19.267,-45.435 -20.435,-70.542c-0.308,-6.061 1.478,-8.207 7.509,-9.307c7.94,-1.471 16.127,-1.778 24.068,-0.615c33.547,4.9 62.108,19.902 86.054,43.66c13.666,13.531 24.007,29.699 34.658,45.496c11.326,16.778 23.514,32.761 39.026,45.865c5.479,4.592 9.848,8.083 14.035,10.656c-12.62,1.407 -33.673,1.714 -48.075,-9.676zm15.899,-102.519c0.521,-2.111 2.421,-3.658 4.722,-3.658a4.74,4.74 0 0 1 1.661,0.305c0.678,0.246 1.293,0.614 1.786,1.163c0.861,0.859 1.354,2.083 1.354,3.368c0,2.695 -2.154,4.837 -4.862,4.837a4.748,4.748 0 0 1 -4.738,-4.034a5.01,5.01 0 0 1 0.077,-1.981zm47.208,26.915c-2.606,0.996 -5.2,1.778 -7.707,1.88c-4.679,0.244 -9.787,-1.654 -12.556,-3.981c-4.308,-3.612 -7.386,-5.631 -8.679,-11.941c-0.554,-2.695 -0.247,-6.858 0.246,-9.246c1.108,-5.144 -0.124,-8.451 -3.754,-11.451c-2.954,-2.449 -6.711,-3.122 -10.834,-3.122c-1.539,0 -2.954,-0.673 -4.001,-1.224c-1.724,-0.856 -3.139,-3 -1.785,-5.634c0.432,-0.856 2.525,-2.939 3.018,-3.305c5.6,-3.185 12.065,-2.144 18.034,0.244c5.54,2.266 9.727,6.429 15.759,12.307c6.155,7.102 7.263,9.063 10.773,14.39c2.771,4.163 5.294,8.451 7.018,13.348c0.877,2.561 0.071,4.74 -2.341,6.277c-0.981,0.625 -2.109,1.044 -3.191,1.458z" fill-rule="nonzero" fill="#4D6BFE"/>
  </g>
 </g>
</svg>