<svg width="512" height="512" xmlns="http://www.w3.org/2000/svg" version="1.1" clip-rule="evenodd">
 <g>
  <title>Layer 1</title>
  <ellipse ry="244" rx="244" id="svg_1" cy="256" cx="256" stroke-dasharray="2,2" stroke-width="0" stroke="#000" fill="#2196f2"/>
  <g id="svg_27">
   <path fill="#d1d1d1" d="m14.5,90.5c0.1621,2.0273 -0.0045,4.0273 -0.5,6c-0.7891,-2.2116 -0.6225,-4.2116 0.5,-6z" opacity="0.014" id="svg_28"/>
  </g>
  <g id="svg_29">
   <path fill="#cccccc" d="m13.5,413.5c-1.1659,-105.166 -1.3325,-210.499 -0.5,-316c0.5,105.333 0.6667,210.666 0.5,316z" opacity="0.02" id="svg_30"/>
  </g>
  <g id="svg_31">
   <path fill="#b3b3b3" d="m13.5,413.5c0.3333,0 0.6667,0 1,0c0,2.333 0,4.667 0,7c-0.9682,-2.107 -1.3016,-4.441 -1,-7z" opacity="0.016" id="svg_32"/>
  </g>
  <g id="svg_3">
   <path fill="#e9e9e9" d="m426.5,16.5c0.751,-1.0735 1.751,-1.2401 3,-0.5c-0.948,0.4828 -1.948,0.6495 -3,0.5z" opacity="0.008" id="svg_4"/>
  </g>
  <g id="svg_5">
   <path fill="#a9a9a9" d="m77.5,17.5c0.7506,-1.0735 1.7506,-1.2401 3,-0.5c-0.948,0.4828 -1.948,0.6495 -3,0.5z" opacity="0.008" id="svg_6"/>
  </g>
  <g id="svg_7">
   <path fill="#e9e9e9" d="m430.5,17.5c0.397,-1.025 1.063,-1.1917 2,-0.5c-0.594,0.4643 -1.261,0.631 -2,0.5z" opacity="0.008" id="svg_8"/>
  </g>
  <g id="svg_13">
   <path fill="#d1d1d1" d="m48.5,34.5c-0.6667,0 -1,0.3333 -1,1c-2.4752,-0.2467 -2.4752,-0.9134 0,-2c0.6067,0.1236 0.94,0.4569 1,1z" opacity="0.006" id="svg_14"/>
  </g>
  <g id="svg_15">
   <path fill="#949494" d="m36.5,46.5c-0.6667,0 -1,0.3333 -1,1c-1.2125,-0.9971 -1.0458,-1.9971 0.5,-3c0.4643,0.5944 0.631,1.2611 0.5,2z" opacity="0.008" id="svg_16"/>
  </g>
  <g id="svg_17">
   <path fill="#d3d3d3" d="m18.5,73.5c1.025,0.3966 1.1917,1.0632 0.5,2c-0.4643,-0.5944 -0.631,-1.2611 -0.5,-2z" opacity="0.016" id="svg_18"/>
  </g>
  <g id="svg_19">
   <path fill="#d3d3d3" d="m17.5,78.5c-0.131,-0.7389 0.0357,-1.4056 0.5,-2c0.6917,0.9368 0.525,1.6034 -0.5,2z" opacity="0.016" id="svg_20"/>
  </g>
  <g id="svg_21">
   <path fill="#b4b4b4" d="m17.5,78.5c0,1.3333 0,2.6667 0,4c-0.3333,0 -0.6667,0 -1,0c-0.2678,-1.599 0.0655,-2.9324 1,-4z" opacity="0.004" id="svg_22"/>
  </g>
  <g id="svg_23">
   <path fill="#c3c3c3" d="m16.5,82.5c0.1495,1.052 -0.0172,2.052 -0.5,3c-0.7401,-1.2494 -0.5735,-2.2494 0.5,-3z" opacity="0.012" id="svg_24"/>
  </g>
  <g id="svg_25">
   <path fill="#d3d3d3" d="m15.5,90.5c-0.3333,0 -0.6667,0 -1,0c0.3333,-5.3333 0.6667,-5.3333 1,0z" opacity="0.016" id="svg_26"/>
  </g>
  <g id="svg_33">
   <path fill="#f0f0f0" d="m14.5,420.5c0.3333,0 0.6667,0 1,0c0,1.333 0,2.667 0,4c-0.9345,-1.068 -1.2678,-2.401 -1,-4z" opacity="0.006" id="svg_34"/>
  </g>
  <g id="svg_35">
   <path fill="#9d9d9d" d="m15.5,424.5c0.3333,0 0.6667,0 1,0c0,1.333 0,2.667 0,4c-0.9345,-1.068 -1.2678,-2.401 -1,-4z" opacity="0.016" id="svg_36"/>
  </g>
  <g id="svg_37">
   <path fill="#bebebe" d="m16.5,428.5c0.3333,0 0.6667,0 1,0c-0.3333,4 -0.6667,4 -1,0z" opacity="0.016" id="svg_38"/>
  </g>
  <g id="svg_39">
   <path fill="#e9e9e9" d="m18.5,432.5c0,0.667 0,1.333 0,2c-1.3333,-0.667 -1.3333,-1.333 0,-2z" opacity="0.008" id="svg_40"/>
  </g>
  <g id="svg_79">
   <path fill="#fefefe" d="m410.5,162.86801c0,38.333 0,76.667 0,115c0,23 0,46 0,69c-1.829,5.495 -5.162,9.828 -10,13c-6.617,0.965 -13.284,1.632 -20,2c-8.452,0.351 -16.786,1.351 -25,3c-14.016,1.137 -27.683,3.803 -41,8c-12.966,2.544 -25.299,6.877 -37,13c-5.384,2.195 -9.551,0.862 -12.5,-4c-0.5,-16.663 -0.667,-33.33 -0.5,-50c0,-24.333 0,-48.667 0,-73c0,-25.333 0,-50.667 0,-76c0.34,-2.179 1.34,-4.012 3,-5.5c18.682,-10.351 38.348,-17.851 59,-22.5c23.146,-4.281 46.48,-6.781 70,-7.5c8.049,2.212 12.716,7.378 14,15.5z" id="svg_80"/>
  </g>
  <g id="svg_81">
   <path fill="#fefefe" d="m247.5,186.5c0,23 0,46 0,69c0,22.667 0,45.333 0,68c0,14.333 0,28.667 0,43c0.166,5.344 -0.001,10.677 -0.5,16c-1.159,2.993 -3.325,4.66 -6.5,5c-1.699,0.16 -3.366,-0.006 -5,-0.5c-13.145,-6.326 -26.812,-11.159 -41,-14.5c-10.276,-2.324 -20.61,-4.324 -31,-6c-4.614,-0.945 -9.281,-1.612 -14,-2c-12.289,-1.355 -24.622,-2.521 -37,-3.5c-1.888,-1.394 -3.888,-2.56 -6,-3.5c-2.297,-2.931 -3.797,-6.264 -4.5,-10c-0.5,-19.997 -0.667,-39.997 -0.5,-60c0,-17 0,-34 0,-51c0,-14 0,-28 0,-42c-0.167,-11.671 0,-23.338 0.5,-35c1.012,-2.702 2.512,-5.035 4.5,-7c0.667,0 1,-0.333 1,-1c3.336,-2.613 7.169,-3.946 11.5,-4c28.945,1.801 57.445,6.301 85.5,13.5c13.94,4.311 27.273,9.978 40,17c2.43,2.305 3.43,5.138 3,8.5z" id="svg_82"/>
  </g>
 </g>

</svg>