<svg width="24" height="24" xmlns="http://www.w3.org/2000/svg" fill-rule="evenodd" fill="currentColor">
 <title>Poe</title>
 <defs>
  <linearGradient y2="1.38661" y1="-0.2299" x2="-0.2938" x1="1.56519" id="lobe-icons-poe-fill-0">
   <stop stop-color="#46A6F7"/>
   <stop stop-color="#8364FF" offset="1"/>
  </linearGradient>
  <linearGradient y2="0.08905" y1="1.19016" x2="1.09296" x1="0.00321" id="lobe-icons-poe-fill-1">
   <stop stop-color="#FF44D3"/>
   <stop stop-color="#CF4BFF" offset="1"/>
  </linearGradient>
 </defs>
 <g>
  <title>Layer 1</title>
  <rect rx="2" id="svg_5" height="8.56197" width="15.74902" y="5.15668" x="2.56309" fill="#ffffff"/>
  <path id="svg_1" d="m20.708,6.876a1.412,1.412 0 0 0 -1.029,-0.415l-0.006,0a2.019,2.019 0 0 1 -2.02,-2.023a1.415,1.415 0 0 0 -1.399,-1.438l-11.383,0a1.412,1.412 0 0 0 -1.401,1.434a2.026,2.026 0 0 1 -2.025,2.025l0,0.002a1.414,1.414 0 0 0 -1.445,1.422l0,3.642a1.414,1.414 0 0 0 1.444,1.42a2.025,2.025 0 0 1 2.025,2.02l0,3.693a0.5,0.5 0 0 0 0.89,0.313l2.051,-2.567l9.843,0a1.412,1.412 0 0 0 1.4,-1.434l0,-0.002c0,-1.12 0.904,-2.025 2.026,-2.025a1.412,1.412 0 0 0 1.446,-1.42l0,-3.643c0,-0.363 -0.14,-0.727 -0.417,-1.005l0,0.001zm-2.42,4.687a2.025,2.025 0 0 1 -2.025,2.005l-11.402,0a2.025,2.025 0 0 1 -2.025,-2.005l0,-3.72a2.026,2.026 0 0 1 2.024,-2.005l11.4,0a2.026,2.026 0 0 1 2.026,2.005l0,3.72l0.002,0z"/>
  <path id="svg_2" d="m7.413,7.57a1.422,1.422 0 0 0 -1.423,1.42l0,1.422a1.422,1.422 0 1 0 2.844,0l0,-1.422c0,-0.784 -0.636,-1.422 -1.422,-1.422l0.001,0.002zm6.297,0a1.422,1.422 0 0 0 -1.422,1.421l0,1.422a1.422,1.422 0 1 0 2.844,0l0,-1.423c0,-0.784 -0.636,-1.422 -1.422,-1.422l0,0.002z"/>
  <path id="svg_3" fill="url(#lobe-icons-poe-fill-0)" d="m7.292,22.643l1.993,-2.492l9.844,0a1.413,1.413 0 0 0 1.4,-1.434a2.025,2.025 0 0 1 2.017,-2.027l0.01,0a1.409,1.409 0 0 0 1.444,-1.42l0,-3.594c0,-0.344 -0.113,-0.68 -0.324,-0.951l-0.397,-0.519l0,4.127a1.415,1.415 0 0 1 -1.444,1.42l-0.007,0a2.026,2.026 0 0 0 -2.018,2.025a1.415,1.415 0 0 1 -1.402,1.436l-9.843,0l-2.169,2.712a0.574,0.574 0 0 0 0.896,0.715l0,0.002z"/>
  <path id="svg_4" fill="url(#lobe-icons-poe-fill-1)" d="m5.004,19.992l2.12,-2.65l9.844,0a1.414,1.414 0 0 0 1.402,-1.437c0,-1.116 0.9,-2.021 2.014,-2.025l0.012,0a1.413,1.413 0 0 0 1.443,-1.422l0,-4.13l0.52,0.68c0.21,0.273 0.324,0.607 0.324,0.95l0,3.594a1.416,1.416 0 0 1 -1.443,1.42l-0.01,0a2.026,2.026 0 0 0 -2.016,2.026a1.414,1.414 0 0 1 -1.402,1.435l-9.842,0l-1.916,2.4a0.671,0.671 0 0 1 -1.049,-0.839l0,-0.002l-0.001,0z"/>
 </g>
</svg>